<?xml version="1.0" encoding="UTF-8" standalone="no"?>
<!-- Created with Inkscape (http://www.inkscape.org/) -->

<svg
   xmlns:dc="http://purl.org/dc/elements/1.1/"
   xmlns:cc="http://creativecommons.org/ns#"
   xmlns:rdf="http://www.w3.org/1999/02/22-rdf-syntax-ns#"
   xmlns:svg="http://www.w3.org/2000/svg"
   xmlns="http://www.w3.org/2000/svg"
   xmlns:xlink="http://www.w3.org/1999/xlink"
   xmlns:sodipodi="http://sodipodi.sourceforge.net/DTD/sodipodi-0.dtd"
   xmlns:inkscape="http://www.inkscape.org/namespaces/inkscape"
   width="96"
   height="96"
   id="svg6517"
   version="1.1"
   inkscape:version="0.91 r13725"
   sodipodi:docname="icon_fluentd.svg">
  <defs
     id="defs6519">
    <linearGradient
       inkscape:collect="always"
       xlink:href="#Background"
       id="linearGradient6461"
       gradientUnits="userSpaceOnUse"
       x1="0"
       y1="970.29498"
       x2="144"
       y2="970.29498"
       gradientTransform="matrix(0,-0.66666669,0.6660448,0,-866.25992,731.29077)" />
    <linearGradient
       id="Background">
      <stop
         id="stop4178"
         offset="0"
         style="stop-color:#ffffff;stop-opacity:1" />
      <stop
         id="stop4180"
         offset="1"
         style="stop-color:#ffffff;stop-opacity:1" />
    </linearGradient>
    <filter
       style="color-interpolation-filters:sRGB;"
       inkscape:label="Inner Shadow"
       id="filter1121">
      <feFlood
         flood-opacity="0.59999999999999998"
         flood-color="rgb(0,0,0)"
         result="flood"
         id="feFlood1123" />
      <feComposite
         in="flood"
         in2="SourceGraphic"
         operator="out"
         result="composite1"
         id="feComposite1125" />
      <feGaussianBlur
         in="composite1"
         stdDeviation="1"
         result="blur"
         id="feGaussianBlur1127" />
      <feOffset
         dx="0"
         dy="2"
         result="offset"
         id="feOffset1129" />
      <feComposite
         in="offset"
         in2="SourceGraphic"
         operator="atop"
         result="composite2"
         id="feComposite1131" />
    </filter>
    <filter
       style="color-interpolation-filters:sRGB;"
       inkscape:label="Drop Shadow"
       id="filter950">
      <feFlood
         flood-opacity="0.25"
         flood-color="rgb(0,0,0)"
         result="flood"
         id="feFlood952" />
      <feComposite
         in="flood"
         in2="SourceGraphic"
         operator="in"
         result="composite1"
         id="feComposite954" />
      <feGaussianBlur
         in="composite1"
         stdDeviation="1"
         result="blur"
         id="feGaussianBlur956" />
      <feOffset
         dx="0"
         dy="1"
         result="offset"
         id="feOffset958" />
      <feComposite
         in="SourceGraphic"
         in2="offset"
         operator="over"
         result="composite2"
         id="feComposite960" />
    </filter>
    <clipPath
       clipPathUnits="userSpaceOnUse"
       id="clipPath873">
      <g
         transform="matrix(0,-0.66666667,0.66604479,0,-258.25992,677.00001)"
         id="g875"
         inkscape:label="Layer 1"
         style="fill:#ff00ff;fill-opacity:1;stroke:none;display:inline">
        <path
           style="fill:#ff00ff;fill-opacity:1;stroke:none;display:inline"
           d="m 46.702703,898.22775 50.594594,0 C 138.16216,898.22775 144,904.06497 144,944.92583 l 0,50.73846 c 0,40.86071 -5.83784,46.69791 -46.702703,46.69791 l -50.594594,0 C 5.8378378,1042.3622 0,1036.525 0,995.66429 L 0,944.92583 C 0,904.06497 5.8378378,898.22775 46.702703,898.22775 Z"
           id="path877"
           inkscape:connector-curvature="0"
           sodipodi:nodetypes="sssssssss" />
      </g>
    </clipPath>
    <filter
       inkscape:collect="always"
       id="filter891"
       inkscape:label="Badge Shadow">
      <feGaussianBlur
         inkscape:collect="always"
         stdDeviation="0.71999962"
         id="feGaussianBlur893" />
    </filter>
    <clipPath
       clipPathUnits="userSpaceOnUse"
       id="clipPath16">
      <path
         inkscape:connector-curvature="0"
         d="m 365.999,1217.508 c -5.635,-2.283 -10.139,-5.404 -13.555,-8.4 l 0,0 c -1.685,-1.472 -3.281,-3.086 -4.422,-4.362 l 0,0 -1.669,-1.917 c -1.274,-1.498 -2.353,-2.809 -3.459,-4.208 l 0,0 c -4.362,-5.53 -8.08,-11.005 -11.469,-16.481 l 0,0 c -6.732,-10.95 -12.191,-21.919 -17.023,-32.977 l 0,0 c -9.56,-22.125 -16.48,-44.624 -21.697,-67.355 l 0,0 c -5.19,-22.731 -8.561,-45.703 -10.361,-68.674 l 0,0 c -3.595,-45.944 -0.759,-91.916 7.481,-136.102 l 0,0 c 6.438,-34.618 16.283,-68.068 28.662,-99.842 l 0,0 c -8.66,2.382 -18.175,4.531 -28.627,6.492 l 0,0 c -12.992,2.373 -27.128,4.646 -44.204,5.725 l 0,0 c -8.633,0.447 -17.952,0.75 -29.688,-0.838 l 0,0 c -5.858,-0.856 -12.475,-2.212 -20.001,-5.225 l 0,0 c -7.429,-2.943 -16.016,-7.973 -23.186,-15.41 l 0,0 c -7.223,-7.366 -12.28,-16.418 -15.232,-24.488 l 0,0 c -2.987,-8.169 -4.361,-15.597 -5.145,-22.365 l 0,0 c -1.462,-13.573 -0.83,-25.122 0.204,-36.322 l 0,0 c 1.089,-11.157 2.81,-21.812 4.798,-32.389 l 0,0 c 1.972,-10.443 4.361,-21.313 7.269,-32.255 l 0,0 c 5.779,-21.92 13.805,-44.687 25.255,-66.784 l 0,0 C 201.326,531.242 216.299,510 234.205,491.683 l 0,0 c 17.863,-18.388 38.427,-33.78 59.901,-46.088 l 0,0 c 21.509,-12.358 43.874,-21.793 66.168,-29.212 l 0,0 c 44.695,-14.769 88.972,-21.902 130.233,-26.361 l 0,0 c 9.239,-0.981 18.317,-1.783 27.27,-2.515 l 0,0 c -9.551,-15.409 -19.44,-31.836 -28.794,-49.368 l 0,0 c -10.55,-19.742 -20.439,-40.914 -28.064,-63.137 l 0,0 c -7.661,-22.187 -12.922,-45.497 -14.83,-68.006 l 0,0 c -1.935,-22.508 -0.598,-43.964 3.201,-62.423 l 0,0 c 3.782,-18.495 9.863,-34.102 17.586,-46.087 l 0,0 c 7.713,-12.021 17.076,-20.474 27.975,-24.844 l 0,0 c -7.803,5.654 -14.135,15.125 -18.88,27.627 l 0,0 c -4.726,12.52 -7.847,28.091 -8.766,45.605 l 0,0 c -0.928,17.478 0.473,36.901 4.585,56.359 l 0,0 c 4.057,19.476 10.87,38.863 19.395,56.806 l 0,0 c 17.086,36.045 40.513,66.525 59.82,90.015 l 0,0 c 19.413,23.452 57.091,74.282 60.81,81.238 l 0,0 c 26.208,-18.655 50.652,-34.761 72.277,-48.85 l 0,0 c -10.497,25.38 -28.545,53.096 -55.317,84.415 l 0,0 c -13.385,15.695 -28.92,32.335 -46.612,50.384 l 0,0 c -17.692,18.049 -37.516,37.534 -59.276,59.285 l 0,0 c -10.808,10.924 -32.291,30.72 -58.731,60.39 l 0,0 c -26.307,29.66 -57.581,69.505 -84.665,120.798 l 0,0 c -13.527,25.612 -25.887,54.05 -35.75,85.022 l 0,0 c -9.872,30.962 -17.211,64.456 -20.76,99.662 l 0,0 c -3.558,35.19 -3.345,72.073 1.792,109.224 l 0,0 c 2.569,18.566 6.359,37.186 11.682,55.565 l 0,0 c 5.36,18.353 12.119,36.546 21.411,53.747 l 0,0 c 2.328,4.299 4.825,8.525 7.589,12.627 l 0,0 c 1.365,2.051 2.819,4.085 4.326,6.064 l 0,0 c 0.749,0.964 1.569,2.016 2.327,2.925 l 0,0 c 0.857,1.035 1.908,2.151 3.139,3.068 l 0,0 c 2.417,1.9 5.903,3.059 9.185,2.836 l 0,0 c 3.273,-0.197 6.136,-1.337 8.606,-2.674 l 0,0 c 4.93,-2.748 8.766,-6.306 12.368,-9.953 l 0,0 c 7.09,-7.349 13.029,-15.339 18.692,-23.418 l 0,0 c 5.645,-8.107 10.933,-16.372 16.043,-24.684 l 0,0 c 20.349,-33.334 38.56,-67.302 56.546,-100.537 l 0,0 c 35.707,-66.597 69.834,-130.617 102.946,-187.931 l 0,0 c 33.004,-57.376 64.885,-108.029 93.546,-149.37 l 0,0 c 28.572,-41.486 53.996,-73.446 71.537,-96.971 l 0,0 c -10.148,18.156 -24.8,40.611 -42.091,68.077 l 0,0 c 3.165,3.363 6.34,6.707 9.506,9.971 l 0,0 c 19.226,19.806 38.48,37.899 57.902,52.346 l 0,0 c 19.351,14.384 39.024,25.005 57.465,28.349 l 0,0 c 1.169,0.223 2.328,0.384 3.451,0.562 l 0,0 1.499,0.213 c 0.437,0.072 1.337,0.117 1.962,0.179 l 0,0 0.526,0.045 0.267,0.017 0.125,0.009 c 0.268,0 -0.215,0 -0.125,0.009 l 0,0 1.008,0.071 1.971,0.127 3.941,0.222 c 5.217,0.267 10.291,0.437 15.223,0.463 l 0,0 c 9.863,0.08 19.164,-0.357 27.77,-1.363 l 0,0 c 17.228,-1.971 31.514,-6.573 42.207,-12.967 l 0,0 c 8.534,-4.914 14.669,-10.907 20.091,-15.329 l 0,0 c 0.901,-1.998 1.658,-4.103 2.194,-6.368 l 0,0 c 3.326,-14.027 -4.254,-23.356 -8.855,-27.537 l 0,0 c -28.02,-18.941 -63.262,-48.495 -95.866,-87.358 l 0,0 C 841.212,574.474 818.962,541.372 801.751,503.9 l 0,0 c -8.623,-18.745 -15.963,-38.577 -21.635,-59.409 l 0,0 c -2.826,-10.434 -5.261,-21.099 -7.249,-31.997 l 0,0 c -0.989,-5.439 -1.873,-10.95 -2.685,-16.48 l 0,0 -1.14,-8.311 c -0.339,-2.71 -0.768,-5.582 -1,-7.971 l 0,0 c 1.391,1.533 3.023,3.602 4.477,5.349 l 0,0 c 1.472,1.819 2.908,3.533 4.298,5.12 l 0,0 c 2.81,3.21 5.458,5.938 7.972,8.24 l 0,0 c 5.057,4.584 9.632,7.419 13.804,8.952 l 0,0 c 8.384,3.069 15.268,0.911 21.154,-2.639 l 0,0 c 11.753,-7.099 18.004,41.092 24.934,93.492 l 0,0 c 6.357,47.978 33.851,111.176 122.349,188.734 l 0,0 c 29.054,3.032 104.275,31.783 104.275,31.783 l 0,0 -111.784,25.245 c -1.363,1.632 -2.835,3.29 -4.476,4.949 l 0,0 c -5.073,5.136 -11.468,10.202 -19.039,14.625 l 0,0 c -7.562,4.441 -16.265,8.24 -25.772,11.307 l 0,0 c -9.506,3.077 -19.806,5.423 -30.695,7.09 l 0,0 c -5.448,0.838 -11.031,1.507 -16.756,2.006 l 0,0 -4.307,0.357 -2.176,0.152 -1.079,0.071 -1.32,0.044 c -0.75,0.036 -1.266,0.089 -2.229,0.089 l 0,0 -2.711,0.009 c -1.695,-0.035 -3.37,-0.062 -5.065,-0.168 l 0,0 c -13.528,-0.785 -27.03,-4.28 -39.809,-9.516 l 0,0 c -12.814,-5.234 -25.014,-12.181 -36.598,-20.198 l 0,0 c -23.185,-16.097 -44.035,-36.384 -63.002,-58.964 l 0,0 c -0.669,-0.793 -1.33,-1.605 -1.98,-2.407 l 0,0 c -25.746,42.091 -55.157,93.671 -86.244,153.099 l 0,0 c -31.46,59.756 -64.349,127.325 -100.046,199.54 l 0,0 c -8.962,18.049 -18.147,36.384 -27.814,54.986 l 0,0 c -9.711,18.603 -19.752,37.418 -31.408,56.68 l 0,0 c -5.903,9.668 -12.111,19.388 -20.065,29.705 l 0,0 c -4.066,5.19 -8.444,10.514 -14.839,16.453 l 0,0 c -3.264,2.97 -7.018,6.136 -12.556,9.453 l 0,0 c -2.792,1.641 -6.091,3.318 -10.264,4.78 l 0,0 c -4.094,1.427 -9.283,2.622 -15.205,2.72 l 0,0 c -0.298,0.01 -0.598,0.01 -0.898,0.01 l 0,0 c -5.674,0 -11.868,-1.187 -17.169,-3.372 M 522.558,441.12 c -20.885,0.249 -47.353,0.802 -77.441,3.836 l 0,0 c -30.044,3.084 -63.869,8.542 -98.299,20.349 l 0,0 c -17.176,5.903 -34.476,13.483 -51.108,23.311 l 0,0 c -16.604,9.827 -32.513,21.973 -46.64,36.491 l 0,0 c -14.142,14.482 -26.431,31.283 -36.418,49.323 l 0,0 c -10.032,18.031 -17.817,37.196 -23.98,56.35 l 0,0 c -3.113,9.578 -5.77,19.138 -8.186,28.645 l 0,0 c -2.399,9.541 -4.522,19.118 -6.073,28.936 l 0,0 c -1.516,9.837 -2.605,19.87 -2.006,30.82 l 0,0 c 0.32,5.476 1.105,11.254 2.951,17.318 l 0,0 c 1.828,6.037 4.94,12.476 9.632,18.005 l 0,0 c 4.654,5.547 10.567,9.747 16.175,12.485 l 0,0 c 5.672,2.782 11.068,4.369 16.062,5.493 l 0,0 c 10.004,2.176 18.753,2.693 26.975,2.979 l 0,0 c 16.372,0.409 30.686,-0.393 43.821,-1.276 l 0,0 c 12.11,-0.883 23.098,-1.944 32.977,-3.291 l 0,0 c 2.676,-6.652 5.441,-13.269 8.366,-19.76 l 0,0 c 17.585,-39.346 39.023,-75.641 62.512,-108.556 l 0,0 C 438.964,576.633 493.601,524.286 544.941,482.212 l 0,0 c 6.724,-5.511 13.412,-10.843 20.029,-16.015 l 0,0 c -3.852,-7.741 -8.597,-16.176 -14.019,-25.255 l 0,0 c -7.714,0.071 -17.265,0.071 -28.393,0.178"
         id="path18" />
    </clipPath>
    <linearGradient
       x1="0"
       y1="0"
       x2="1"
       y2="0"
       gradientUnits="userSpaceOnUse"
       gradientTransform="matrix(-4.58e-5,-918.33362,-918.33362,4.58e-5,611.42432,1099.8164)"
       spreadMethod="pad"
       id="linearGradient24">
      <stop
         style="stop-opacity:1;stop-color:#29abe2"
         offset="0"
         id="stop26" />
      <stop
         style="stop-opacity:1;stop-color:#0071bc"
         offset="0.448486"
         id="stop28" />
      <stop
         style="stop-opacity:1;stop-color:#1b1464"
         offset="1"
         id="stop30" />
    </linearGradient>
    <clipPath
       clipPathUnits="userSpaceOnUse"
       id="clipPath16-3">
      <path
         inkscape:connector-curvature="0"
         d="m 365.999,1217.508 c -5.635,-2.283 -10.139,-5.404 -13.555,-8.4 l 0,0 c -1.685,-1.472 -3.281,-3.086 -4.422,-4.362 l 0,0 -1.669,-1.917 c -1.274,-1.498 -2.353,-2.809 -3.459,-4.208 l 0,0 c -4.362,-5.53 -8.08,-11.005 -11.469,-16.481 l 0,0 c -6.732,-10.95 -12.191,-21.919 -17.023,-32.977 l 0,0 c -9.56,-22.125 -16.48,-44.624 -21.697,-67.355 l 0,0 c -5.19,-22.731 -8.561,-45.703 -10.361,-68.674 l 0,0 c -3.595,-45.944 -0.759,-91.916 7.481,-136.102 l 0,0 c 6.438,-34.618 16.283,-68.068 28.662,-99.842 l 0,0 c -8.66,2.382 -18.175,4.531 -28.627,6.492 l 0,0 c -12.992,2.373 -27.128,4.646 -44.204,5.725 l 0,0 c -8.633,0.447 -17.952,0.75 -29.688,-0.838 l 0,0 c -5.858,-0.856 -12.475,-2.212 -20.001,-5.225 l 0,0 c -7.429,-2.943 -16.016,-7.973 -23.186,-15.41 l 0,0 c -7.223,-7.366 -12.28,-16.418 -15.232,-24.488 l 0,0 c -2.987,-8.169 -4.361,-15.597 -5.145,-22.365 l 0,0 c -1.462,-13.573 -0.83,-25.122 0.204,-36.322 l 0,0 c 1.089,-11.157 2.81,-21.812 4.798,-32.389 l 0,0 c 1.972,-10.443 4.361,-21.313 7.269,-32.255 l 0,0 c 5.779,-21.92 13.805,-44.687 25.255,-66.784 l 0,0 C 201.326,531.242 216.299,510 234.205,491.683 l 0,0 c 17.863,-18.388 38.427,-33.78 59.901,-46.088 l 0,0 c 21.509,-12.358 43.874,-21.793 66.168,-29.212 l 0,0 c 44.695,-14.769 88.972,-21.902 130.233,-26.361 l 0,0 c 9.239,-0.981 18.317,-1.783 27.27,-2.515 l 0,0 c -9.551,-15.409 -19.44,-31.836 -28.794,-49.368 l 0,0 c -10.55,-19.742 -20.439,-40.914 -28.064,-63.137 l 0,0 c -7.661,-22.187 -12.922,-45.497 -14.83,-68.006 l 0,0 c -1.935,-22.508 -0.598,-43.964 3.201,-62.423 l 0,0 c 3.782,-18.495 9.863,-34.102 17.586,-46.087 l 0,0 c 7.713,-12.021 17.076,-20.474 27.975,-24.844 l 0,0 c -7.803,5.654 -14.135,15.125 -18.88,27.627 l 0,0 c -4.726,12.52 -7.847,28.091 -8.766,45.605 l 0,0 c -0.928,17.478 0.473,36.901 4.585,56.359 l 0,0 c 4.057,19.476 10.87,38.863 19.395,56.806 l 0,0 c 17.086,36.045 40.513,66.525 59.82,90.015 l 0,0 c 19.413,23.452 57.091,74.282 60.81,81.238 l 0,0 c 26.208,-18.655 50.652,-34.761 72.277,-48.85 l 0,0 c -10.497,25.38 -28.545,53.096 -55.317,84.415 l 0,0 c -13.385,15.695 -28.92,32.335 -46.612,50.384 l 0,0 c -17.692,18.049 -37.516,37.534 -59.276,59.285 l 0,0 c -10.808,10.924 -32.291,30.72 -58.731,60.39 l 0,0 c -26.307,29.66 -57.581,69.505 -84.665,120.798 l 0,0 c -13.527,25.612 -25.887,54.05 -35.75,85.022 l 0,0 c -9.872,30.962 -17.211,64.456 -20.76,99.662 l 0,0 c -3.558,35.19 -3.345,72.073 1.792,109.224 l 0,0 c 2.569,18.566 6.359,37.186 11.682,55.565 l 0,0 c 5.36,18.353 12.119,36.546 21.411,53.747 l 0,0 c 2.328,4.299 4.825,8.525 7.589,12.627 l 0,0 c 1.365,2.051 2.819,4.085 4.326,6.064 l 0,0 c 0.749,0.964 1.569,2.016 2.327,2.925 l 0,0 c 0.857,1.035 1.908,2.151 3.139,3.068 l 0,0 c 2.417,1.9 5.903,3.059 9.185,2.836 l 0,0 c 3.273,-0.197 6.136,-1.337 8.606,-2.674 l 0,0 c 4.93,-2.748 8.766,-6.306 12.368,-9.953 l 0,0 c 7.09,-7.349 13.029,-15.339 18.692,-23.418 l 0,0 c 5.645,-8.107 10.933,-16.372 16.043,-24.684 l 0,0 c 20.349,-33.334 38.56,-67.302 56.546,-100.537 l 0,0 c 35.707,-66.597 69.834,-130.617 102.946,-187.931 l 0,0 c 33.004,-57.376 64.885,-108.029 93.546,-149.37 l 0,0 c 28.572,-41.486 53.996,-73.446 71.537,-96.971 l 0,0 c -10.148,18.156 -24.8,40.611 -42.091,68.077 l 0,0 c 3.165,3.363 6.34,6.707 9.506,9.971 l 0,0 c 19.226,19.806 38.48,37.899 57.902,52.346 l 0,0 c 19.351,14.384 39.024,25.005 57.465,28.349 l 0,0 c 1.169,0.223 2.328,0.384 3.451,0.562 l 0,0 1.499,0.213 c 0.437,0.072 1.337,0.117 1.962,0.179 l 0,0 0.526,0.045 0.267,0.017 0.125,0.009 c 0.268,0 -0.215,0 -0.125,0.009 l 0,0 1.008,0.071 1.971,0.127 3.941,0.222 c 5.217,0.267 10.291,0.437 15.223,0.463 l 0,0 c 9.863,0.08 19.164,-0.357 27.77,-1.363 l 0,0 c 17.228,-1.971 31.514,-6.573 42.207,-12.967 l 0,0 c 8.534,-4.914 14.669,-10.907 20.091,-15.329 l 0,0 c 0.901,-1.998 1.658,-4.103 2.194,-6.368 l 0,0 c 3.326,-14.027 -4.254,-23.356 -8.855,-27.537 l 0,0 c -28.02,-18.941 -63.262,-48.495 -95.866,-87.358 l 0,0 C 841.212,574.474 818.962,541.372 801.751,503.9 l 0,0 c -8.623,-18.745 -15.963,-38.577 -21.635,-59.409 l 0,0 c -2.826,-10.434 -5.261,-21.099 -7.249,-31.997 l 0,0 c -0.989,-5.439 -1.873,-10.95 -2.685,-16.48 l 0,0 -1.14,-8.311 c -0.339,-2.71 -0.768,-5.582 -1,-7.971 l 0,0 c 1.391,1.533 3.023,3.602 4.477,5.349 l 0,0 c 1.472,1.819 2.908,3.533 4.298,5.12 l 0,0 c 2.81,3.21 5.458,5.938 7.972,8.24 l 0,0 c 5.057,4.584 9.632,7.419 13.804,8.952 l 0,0 c 8.384,3.069 15.268,0.911 21.154,-2.639 l 0,0 c 11.753,-7.099 18.004,41.092 24.934,93.492 l 0,0 c 6.357,47.978 33.851,111.176 122.349,188.734 l 0,0 c 29.054,3.032 104.275,31.783 104.275,31.783 l 0,0 -111.784,25.245 c -1.363,1.632 -2.835,3.29 -4.476,4.949 l 0,0 c -5.073,5.136 -11.468,10.202 -19.039,14.625 l 0,0 c -7.562,4.441 -16.265,8.24 -25.772,11.307 l 0,0 c -9.506,3.077 -19.806,5.423 -30.695,7.09 l 0,0 c -5.448,0.838 -11.031,1.507 -16.756,2.006 l 0,0 -4.307,0.357 -2.176,0.152 -1.079,0.071 -1.32,0.044 c -0.75,0.036 -1.266,0.089 -2.229,0.089 l 0,0 -2.711,0.009 c -1.695,-0.035 -3.37,-0.062 -5.065,-0.168 l 0,0 c -13.528,-0.785 -27.03,-4.28 -39.809,-9.516 l 0,0 c -12.814,-5.234 -25.014,-12.181 -36.598,-20.198 l 0,0 c -23.185,-16.097 -44.035,-36.384 -63.002,-58.964 l 0,0 c -0.669,-0.793 -1.33,-1.605 -1.98,-2.407 l 0,0 c -25.746,42.091 -55.157,93.671 -86.244,153.099 l 0,0 c -31.46,59.756 -64.349,127.325 -100.046,199.54 l 0,0 c -8.962,18.049 -18.147,36.384 -27.814,54.986 l 0,0 c -9.711,18.603 -19.752,37.418 -31.408,56.68 l 0,0 c -5.903,9.668 -12.111,19.388 -20.065,29.705 l 0,0 c -4.066,5.19 -8.444,10.514 -14.839,16.453 l 0,0 c -3.264,2.97 -7.018,6.136 -12.556,9.453 l 0,0 c -2.792,1.641 -6.091,3.318 -10.264,4.78 l 0,0 c -4.094,1.427 -9.283,2.622 -15.205,2.72 l 0,0 c -0.298,0.01 -0.598,0.01 -0.898,0.01 l 0,0 c -5.674,0 -11.868,-1.187 -17.169,-3.372 M 522.558,441.12 c -20.885,0.249 -47.353,0.802 -77.441,3.836 l 0,0 c -30.044,3.084 -63.869,8.542 -98.299,20.349 l 0,0 c -17.176,5.903 -34.476,13.483 -51.108,23.311 l 0,0 c -16.604,9.827 -32.513,21.973 -46.64,36.491 l 0,0 c -14.142,14.482 -26.431,31.283 -36.418,49.323 l 0,0 c -10.032,18.031 -17.817,37.196 -23.98,56.35 l 0,0 c -3.113,9.578 -5.77,19.138 -8.186,28.645 l 0,0 c -2.399,9.541 -4.522,19.118 -6.073,28.936 l 0,0 c -1.516,9.837 -2.605,19.87 -2.006,30.82 l 0,0 c 0.32,5.476 1.105,11.254 2.951,17.318 l 0,0 c 1.828,6.037 4.94,12.476 9.632,18.005 l 0,0 c 4.654,5.547 10.567,9.747 16.175,12.485 l 0,0 c 5.672,2.782 11.068,4.369 16.062,5.493 l 0,0 c 10.004,2.176 18.753,2.693 26.975,2.979 l 0,0 c 16.372,0.409 30.686,-0.393 43.821,-1.276 l 0,0 c 12.11,-0.883 23.098,-1.944 32.977,-3.291 l 0,0 c 2.676,-6.652 5.441,-13.269 8.366,-19.76 l 0,0 c 17.585,-39.346 39.023,-75.641 62.512,-108.556 l 0,0 C 438.964,576.633 493.601,524.286 544.941,482.212 l 0,0 c 6.724,-5.511 13.412,-10.843 20.029,-16.015 l 0,0 c -3.852,-7.741 -8.597,-16.176 -14.019,-25.255 l 0,0 c -7.714,0.071 -17.265,0.071 -28.393,0.178"
         id="path18-1" />
    </clipPath>
    <linearGradient
       x1="0"
       y1="0"
       x2="1"
       y2="0"
       gradientUnits="userSpaceOnUse"
       gradientTransform="matrix(-4.58e-5,-918.33362,-918.33362,4.58e-5,611.42432,1099.8164)"
       spreadMethod="pad"
       id="linearGradient24-1">
      <stop
         style="stop-opacity:1;stop-color:#29abe2"
         offset="0"
         id="stop26-3" />
      <stop
         style="stop-opacity:1;stop-color:#0071bc"
         offset="0.448486"
         id="stop28-4" />
      <stop
         style="stop-opacity:1;stop-color:#1b1464"
         offset="1"
         id="stop30-6" />
    </linearGradient>
  </defs>
  <sodipodi:namedview
     id="base"
     pagecolor="#ffffff"
     bordercolor="#666666"
     borderopacity="1.0"
     inkscape:pageopacity="0.0"
     inkscape:pageshadow="2"
     inkscape:zoom="8.1490724"
     inkscape:cx="64.213213"
     inkscape:cy="39.024733"
     inkscape:document-units="px"
     inkscape:current-layer="layer1"
     showgrid="true"
     fit-margin-top="0"
     fit-margin-left="0"
     fit-margin-right="0"
     fit-margin-bottom="0"
     inkscape:window-width="1920"
     inkscape:window-height="1021"
     inkscape:window-x="0"
     inkscape:window-y="33"
     inkscape:window-maximized="1"
     showborder="true"
     showguides="true"
     inkscape:guide-bbox="true"
     inkscape:showpageshadow="false">
    <inkscape:grid
       type="xygrid"
       id="grid821" />
    <sodipodi:guide
       orientation="1,0"
       position="16,48"
       id="guide823" />
    <sodipodi:guide
       orientation="0,1"
       position="64,80"
       id="guide825" />
    <sodipodi:guide
       orientation="1,0"
       position="80,40"
       id="guide827" />
    <sodipodi:guide
       orientation="0,1"
       position="64,16"
       id="guide829" />
  </sodipodi:namedview>
  <metadata
     id="metadata6522">
    <rdf:RDF>
      <cc:Work
         rdf:about="">
        <dc:format>image/svg+xml</dc:format>
        <dc:type
           rdf:resource="http://purl.org/dc/dcmitype/StillImage" />
        <dc:title></dc:title>
      </cc:Work>
    </rdf:RDF>
  </metadata>
  <g
     inkscape:label="BACKGROUND"
     inkscape:groupmode="layer"
     id="layer1"
     transform="translate(268,-635.29076)"
     style="display:inline">
    <path
       style="fill:url(#linearGradient6461);fill-opacity:1;stroke:none;display:inline;filter:url(#filter1121)"
       d="m -268,700.15563 0,-33.72973 c 0,-27.24324 3.88785,-31.13513 31.10302,-31.13513 l 33.79408,0 c 27.21507,0 31.1029,3.89189 31.1029,31.13513 l 0,33.72973 c 0,27.24325 -3.88783,31.13514 -31.1029,31.13514 l -33.79408,0 C -264.11215,731.29077 -268,727.39888 -268,700.15563 Z"
       id="path6455"
       inkscape:connector-curvature="0"
       sodipodi:nodetypes="sssssssss" />
  </g>
  <g
     inkscape:groupmode="layer"
     id="layer3"
     inkscape:label="PLACE YOUR PICTOGRAM HERE"
     style="display:inline">
    <g
       style="display:inline"
       transform="matrix(0.05571113,0,0,-0.05571113,14.273782,84.239655)"
       id="g12"
       inkscape:export-filename="/home/edsiper/fluentd_logo.png"
       inkscape:export-xdpi="6.0931292"
       inkscape:export-ydpi="6.0931292">
      <g
         id="g14"
         clip-path="url(#clipPath16-3)">
        <g
           id="g20">
          <g
             id="g22">
            <path
               inkscape:connector-curvature="0"
               d="m 365.999,1217.508 c -5.635,-2.283 -10.139,-5.404 -13.555,-8.4 l 0,0 c -1.685,-1.472 -3.281,-3.086 -4.422,-4.362 l 0,0 -1.669,-1.917 c -1.274,-1.498 -2.353,-2.809 -3.459,-4.208 l 0,0 c -4.362,-5.53 -8.08,-11.005 -11.469,-16.481 l 0,0 c -6.732,-10.95 -12.191,-21.919 -17.023,-32.977 l 0,0 c -9.56,-22.125 -16.48,-44.624 -21.697,-67.355 l 0,0 c -5.19,-22.731 -8.561,-45.703 -10.361,-68.674 l 0,0 c -3.595,-45.944 -0.759,-91.916 7.481,-136.102 l 0,0 c 6.438,-34.618 16.283,-68.068 28.662,-99.842 l 0,0 c -8.66,2.382 -18.175,4.531 -28.627,6.492 l 0,0 c -12.992,2.373 -27.128,4.646 -44.204,5.725 l 0,0 c -8.633,0.447 -17.952,0.75 -29.688,-0.838 l 0,0 c -5.858,-0.856 -12.475,-2.212 -20.001,-5.225 l 0,0 c -7.429,-2.943 -16.016,-7.973 -23.186,-15.41 l 0,0 c -7.223,-7.366 -12.28,-16.418 -15.232,-24.488 l 0,0 c -2.987,-8.169 -4.361,-15.597 -5.145,-22.365 l 0,0 c -1.462,-13.573 -0.83,-25.122 0.204,-36.322 l 0,0 c 1.089,-11.157 2.81,-21.812 4.798,-32.389 l 0,0 c 1.972,-10.443 4.361,-21.313 7.269,-32.255 l 0,0 c 5.779,-21.92 13.805,-44.687 25.255,-66.784 l 0,0 C 201.326,531.242 216.299,510 234.205,491.683 l 0,0 c 17.863,-18.388 38.427,-33.78 59.901,-46.088 l 0,0 c 21.509,-12.358 43.874,-21.793 66.168,-29.212 l 0,0 c 44.695,-14.769 88.972,-21.902 130.233,-26.361 l 0,0 c 9.239,-0.981 18.317,-1.783 27.27,-2.515 l 0,0 c -9.551,-15.409 -19.44,-31.836 -28.794,-49.368 l 0,0 c -10.55,-19.742 -20.439,-40.914 -28.064,-63.137 l 0,0 c -7.661,-22.187 -12.922,-45.497 -14.83,-68.006 l 0,0 c -1.935,-22.508 -0.598,-43.964 3.201,-62.423 l 0,0 c 3.782,-18.495 9.863,-34.102 17.586,-46.087 l 0,0 c 7.713,-12.021 17.076,-20.474 27.975,-24.844 l 0,0 c -7.803,5.654 -14.135,15.125 -18.88,27.627 l 0,0 c -4.726,12.52 -7.847,28.091 -8.766,45.605 l 0,0 c -0.928,17.478 0.473,36.901 4.585,56.359 l 0,0 c 4.057,19.476 10.87,38.863 19.395,56.806 l 0,0 c 17.086,36.045 40.513,66.525 59.82,90.015 l 0,0 c 19.413,23.452 57.091,74.282 60.81,81.238 l 0,0 c 26.208,-18.655 50.652,-34.761 72.277,-48.85 l 0,0 c -10.497,25.38 -28.545,53.096 -55.317,84.415 l 0,0 c -13.385,15.695 -28.92,32.335 -46.612,50.384 l 0,0 c -17.692,18.049 -37.516,37.534 -59.276,59.285 l 0,0 c -10.808,10.924 -32.291,30.72 -58.731,60.39 l 0,0 c -26.307,29.66 -57.581,69.505 -84.665,120.798 l 0,0 c -13.527,25.612 -25.887,54.05 -35.75,85.022 l 0,0 c -9.872,30.962 -17.211,64.456 -20.76,99.662 l 0,0 c -3.558,35.19 -3.345,72.073 1.792,109.224 l 0,0 c 2.569,18.566 6.359,37.186 11.682,55.565 l 0,0 c 5.36,18.353 12.119,36.546 21.411,53.747 l 0,0 c 2.328,4.299 4.825,8.525 7.589,12.627 l 0,0 c 1.365,2.051 2.819,4.085 4.326,6.064 l 0,0 c 0.749,0.964 1.569,2.016 2.327,2.925 l 0,0 c 0.857,1.035 1.908,2.151 3.139,3.068 l 0,0 c 2.417,1.9 5.903,3.059 9.185,2.836 l 0,0 c 3.273,-0.197 6.136,-1.337 8.606,-2.674 l 0,0 c 4.93,-2.748 8.766,-6.306 12.368,-9.953 l 0,0 c 7.09,-7.349 13.029,-15.339 18.692,-23.418 l 0,0 c 5.645,-8.107 10.933,-16.372 16.043,-24.684 l 0,0 c 20.349,-33.334 38.56,-67.302 56.546,-100.537 l 0,0 c 35.707,-66.597 69.834,-130.617 102.946,-187.931 l 0,0 c 33.004,-57.376 64.885,-108.029 93.546,-149.37 l 0,0 c 28.572,-41.486 53.996,-73.446 71.537,-96.971 l 0,0 c -10.148,18.156 -24.8,40.611 -42.091,68.077 l 0,0 c 3.165,3.363 6.34,6.707 9.506,9.971 l 0,0 c 19.226,19.806 38.48,37.899 57.902,52.346 l 0,0 c 19.351,14.384 39.024,25.005 57.465,28.349 l 0,0 c 1.169,0.223 2.328,0.384 3.451,0.562 l 0,0 1.499,0.213 c 0.437,0.072 1.337,0.117 1.962,0.179 l 0,0 0.526,0.045 0.267,0.017 0.125,0.009 c 0.268,0 -0.215,0 -0.125,0.009 l 0,0 1.008,0.071 1.971,0.127 3.941,0.222 c 5.217,0.267 10.291,0.437 15.223,0.463 l 0,0 c 9.863,0.08 19.164,-0.357 27.77,-1.363 l 0,0 c 17.228,-1.971 31.514,-6.573 42.207,-12.967 l 0,0 c 8.534,-4.914 14.669,-10.907 20.091,-15.329 l 0,0 c 0.901,-1.998 1.658,-4.103 2.194,-6.368 l 0,0 c 3.326,-14.027 -4.254,-23.356 -8.855,-27.537 l 0,0 c -28.02,-18.941 -63.262,-48.495 -95.866,-87.358 l 0,0 C 841.212,574.474 818.962,541.372 801.751,503.9 l 0,0 c -8.623,-18.745 -15.963,-38.577 -21.635,-59.409 l 0,0 c -2.826,-10.434 -5.261,-21.099 -7.249,-31.997 l 0,0 c -0.989,-5.439 -1.873,-10.95 -2.685,-16.48 l 0,0 -1.14,-8.311 c -0.339,-2.71 -0.768,-5.582 -1,-7.971 l 0,0 c 1.391,1.533 3.023,3.602 4.477,5.349 l 0,0 c 1.472,1.819 2.908,3.533 4.298,5.12 l 0,0 c 2.81,3.21 5.458,5.938 7.972,8.24 l 0,0 c 5.057,4.584 9.632,7.419 13.804,8.952 l 0,0 c 8.384,3.069 15.268,0.911 21.154,-2.639 l 0,0 c 11.753,-7.099 18.004,41.092 24.934,93.492 l 0,0 c 6.357,47.978 33.851,111.176 122.349,188.734 l 0,0 c 29.054,3.032 104.275,31.783 104.275,31.783 l 0,0 -111.784,25.245 c -1.363,1.632 -2.835,3.29 -4.476,4.949 l 0,0 c -5.073,5.136 -11.468,10.202 -19.039,14.625 l 0,0 c -7.562,4.441 -16.265,8.24 -25.772,11.307 l 0,0 c -9.506,3.077 -19.806,5.423 -30.695,7.09 l 0,0 c -5.448,0.838 -11.031,1.507 -16.756,2.006 l 0,0 -4.307,0.357 -2.176,0.152 -1.079,0.071 -1.32,0.044 c -0.75,0.036 -1.266,0.089 -2.229,0.089 l 0,0 -2.711,0.009 c -1.695,-0.035 -3.37,-0.062 -5.065,-0.168 l 0,0 c -13.528,-0.785 -27.03,-4.28 -39.809,-9.516 l 0,0 c -12.814,-5.234 -25.014,-12.181 -36.598,-20.198 l 0,0 c -23.185,-16.097 -44.035,-36.384 -63.002,-58.964 l 0,0 c -0.669,-0.793 -1.33,-1.605 -1.98,-2.407 l 0,0 c -25.746,42.091 -55.157,93.671 -86.244,153.099 l 0,0 c -31.46,59.756 -64.349,127.325 -100.046,199.54 l 0,0 c -8.962,18.049 -18.147,36.384 -27.814,54.986 l 0,0 c -9.711,18.603 -19.752,37.418 -31.408,56.68 l 0,0 c -5.903,9.668 -12.111,19.388 -20.065,29.705 l 0,0 c -4.066,5.19 -8.444,10.514 -14.839,16.453 l 0,0 c -3.264,2.97 -7.018,6.136 -12.556,9.453 l 0,0 c -2.792,1.641 -6.091,3.318 -10.264,4.78 l 0,0 c -4.094,1.427 -9.283,2.622 -15.205,2.72 l 0,0 c -0.298,0.01 -0.598,0.01 -0.898,0.01 l 0,0 c -5.674,0 -11.868,-1.187 -17.169,-3.372 M 522.558,441.12 c -20.885,0.249 -47.353,0.802 -77.441,3.836 l 0,0 c -30.044,3.084 -63.869,8.542 -98.299,20.349 l 0,0 c -17.176,5.903 -34.476,13.483 -51.108,23.311 l 0,0 c -16.604,9.827 -32.513,21.973 -46.64,36.491 l 0,0 c -14.142,14.482 -26.431,31.283 -36.418,49.323 l 0,0 c -10.032,18.031 -17.817,37.196 -23.98,56.35 l 0,0 c -3.113,9.578 -5.77,19.138 -8.186,28.645 l 0,0 c -2.399,9.541 -4.522,19.118 -6.073,28.936 l 0,0 c -1.516,9.837 -2.605,19.87 -2.006,30.82 l 0,0 c 0.32,5.476 1.105,11.254 2.951,17.318 l 0,0 c 1.828,6.037 4.94,12.476 9.632,18.005 l 0,0 c 4.654,5.547 10.567,9.747 16.175,12.485 l 0,0 c 5.672,2.782 11.068,4.369 16.062,5.493 l 0,0 c 10.004,2.176 18.753,2.693 26.975,2.979 l 0,0 c 16.372,0.409 30.686,-0.393 43.821,-1.276 l 0,0 c 12.11,-0.883 23.098,-1.944 32.977,-3.291 l 0,0 c 2.676,-6.652 5.441,-13.269 8.366,-19.76 l 0,0 c 17.585,-39.346 39.023,-75.641 62.512,-108.556 l 0,0 C 438.964,576.633 493.601,524.286 544.941,482.212 l 0,0 c 6.724,-5.511 13.412,-10.843 20.029,-16.015 l 0,0 c -3.852,-7.741 -8.597,-16.176 -14.019,-25.255 l 0,0 c -7.714,0.071 -17.265,0.071 -28.393,0.178"
               style="fill:url(#linearGradient24-1);stroke:none"
               id="path32" />
          </g>
        </g>
      </g>
    </g>
  </g>
  <g
     inkscape:groupmode="layer"
     id="layer2"
     inkscape:label="BADGE"
     style="display:none"
     sodipodi:insensitive="true">
    <g
       style="display:inline"
       transform="translate(-340.00001,-581)"
       id="g4394"
       clip-path="none">
      <g
         id="g855">
        <g
           inkscape:groupmode="maskhelper"
           id="g870"
           clip-path="url(#clipPath873)"
           style="opacity:0.6;filter:url(#filter891)">
          <circle
             transform="matrix(1.4999992,0,0,1.4999992,-29.999795,-237.54282)"
             id="path844"
             style="color:#000000;display:inline;overflow:visible;visibility:visible;fill:#000000;fill-opacity:1;fill-rule:nonzero;stroke:none;stroke-width:4;marker:none;enable-background:accumulate"
             cx="252"
             cy="552.36218"
             r="12" />
        </g>
        <g
           id="g862">
          <circle
             style="color:#000000;display:inline;overflow:visible;visibility:visible;fill:#f5f5f5;fill-opacity:1;fill-rule:nonzero;stroke:none;stroke-width:4;marker:none;enable-background:accumulate"
             id="path4398"
             transform="matrix(1.4999992,0,0,1.4999992,-29.999795,-238.54282)"
             cx="252"
             cy="552.36218"
             r="12" />
          <circle
             transform="matrix(1.25,0,0,1.25,33,-100.45273)"
             id="path4400"
             style="color:#000000;display:inline;overflow:visible;visibility:visible;fill:#dd4814;fill-opacity:1;fill-rule:nonzero;stroke:none;stroke-width:4;marker:none;enable-background:accumulate"
             cx="252"
             cy="552.36218"
             r="12" />
          <path
             sodipodi:type="star"
             style="color:#000000;display:inline;overflow:visible;visibility:visible;fill:#f5f5f5;fill-opacity:1;fill-rule:nonzero;stroke:none;stroke-width:3;marker:none;enable-background:accumulate"
             id="path4459"
             sodipodi:sides="5"
             sodipodi:cx="666.19574"
             sodipodi:cy="589.50385"
             sodipodi:r1="7.2431178"
             sodipodi:r2="4.3458705"
             sodipodi:arg1="1.0471976"
             sodipodi:arg2="1.6755161"
             inkscape:flatsided="false"
             inkscape:rounded="0.1"
             inkscape:randomized="0"
             d="m 669.8173,595.77657 c -0.39132,0.22593 -3.62645,-1.90343 -4.07583,-1.95066 -0.44938,-0.0472 -4.05653,1.36297 -4.39232,1.06062 -0.3358,-0.30235 0.68963,-4.03715 0.59569,-4.47913 -0.0939,-0.44198 -2.5498,-3.43681 -2.36602,-3.8496 0.18379,-0.41279 4.05267,-0.59166 4.44398,-0.81759 0.39132,-0.22593 2.48067,-3.48704 2.93005,-3.4398 0.44938,0.0472 1.81505,3.67147 2.15084,3.97382 0.3358,0.30236 4.08294,1.2817 4.17689,1.72369 0.0939,0.44198 -2.9309,2.86076 -3.11469,3.27355 -0.18379,0.41279 0.0427,4.27917 -0.34859,4.5051 z"
             transform="matrix(1.511423,-0.16366377,0.16366377,1.511423,-755.37346,-191.93651)" />
        </g>
      </g>
    </g>
  </g>
</svg>
